# xmcd
#
# Track frame offsets: 
#        150
#        23818
#        41135
#        62159
#        77918
#        94774
#        115150
#        131620
#        153206
#        174446
#        189801
#
# Disc length: 2833 seconds
#
# Revision: 2
# Processed by: cddbd v1.5.2PL0 Copyright (c) Steve Scherf et al.
# Submitted via: ExactAudioCopyFreeDBPlugin 1.0
#
DISCID=850b0f0b
DTITLE=The Band of Heathens - The Band of Heathens
DYEAR=2008
DGENRE=Americana
TTITLE0=Don't Call On Me
TTITLE1=Jackson Station
TTITLE2=Maple Tears
TTITLE3=Heart On My Sleeve
TTITLE4=Second Line
TTITLE5=40 Days
TTITLE6=This I Know
TTITLE7=Unsleeping Eye
TTITLE8=Cornbread
TTITLE9=Nine Steps Down
TTITLE10=Hallelujah
EXTD=YEAR: 2008
EXTT0=
EXTT1=
EXTT2=
EXTT3=
EXTT4=
EXTT5=
EXTT6=
EXTT7=
EXTT8=
EXTT9=
EXTT10=
PLAYORDER=
